<svg width="20" height="20" viewBox="0 0 20 20" fill="none" xmlns="http://www.w3.org/2000/svg">
<g id="briefcase 1" clip-path="url(#clip0_163_636)">
<g id="Group">
<g id="Group_2">
<g id="Group_3">
<path id="Vector" d="M18.3333 4.16679H14.1667V3.33343C14.1667 2.41425 13.4192 1.66675 12.5 1.66675H7.5C6.58082 1.66675 5.83332 2.41421 5.83332 3.33343V4.16675H1.66668C0.747461 4.16679 0 4.91425 0 5.83343V8.33344C0 9.25266 0.747461 10.0001 1.66668 10.0001H8.33336V9.58344C8.33336 9.35313 8.51973 9.16676 8.75004 9.16676H11.25C11.4804 9.16676 11.6667 9.35313 11.6667 9.58344V10.0001H18.3334C19.2525 10.0001 20 9.25266 20 8.33344V5.83343C20 4.91425 19.2525 4.16679 18.3333 4.16679ZM12.5 4.16679H7.5V3.33343H12.5V4.16679Z" fill="#FFBB38"/>
<path id="Vector_2" d="M19.7689 10.4498C19.6269 10.3794 19.4572 10.3957 19.3318 10.4909C19.0356 10.7151 18.6905 10.8335 18.3333 10.8335H11.6667V12.0835C11.6667 12.3138 11.4803 12.5002 11.25 12.5002H8.75C8.51969 12.5002 8.33332 12.3138 8.33332 12.0835V10.8335H1.66668C1.30941 10.8335 0.964375 10.7151 0.668125 10.4909C0.542383 10.3948 0.373125 10.3786 0.231094 10.4498C0.0895312 10.5202 0 10.6646 0 10.8229V16.6668C0 17.586 0.747461 18.3335 1.66668 18.3335H18.3334C19.2525 18.3335 20 17.5861 20 16.6668V10.8229C20 10.6646 19.9105 10.5202 19.7689 10.4498Z" fill="#FFBB38"/>
</g>
</g>
</g>
</g>
<defs>
<clipPath id="clip0_163_636">
<rect width="20" height="20" fill="white"/>
</clipPath>
</defs>
</svg>
