<svg width="48" height="32" viewBox="0 0 48 32" fill="none" xmlns="http://www.w3.org/2000/svg">
<g id="Group 272">
<path id="Rectangle 205" d="M48 14C48 7.37258 42.5985 2 35.9355 2H16.0645C9.40147 2 4 7.37258 4 14C4 20.6274 9.40147 26 16.0645 26H35.9355C42.5985 26 48 20.6274 48 14Z" fill="#DFEAF2"/>
<g id="Ellipse 32" filter="url(#filter0_d_163_1450)">
<path d="M5.57185 14.1137C5.57185 19.9405 10.3208 24.6641 16.179 24.6641C22.0372 24.6641 26.7861 19.9405 26.7861 14.1137C26.7861 8.28682 22.0372 3.56323 16.179 3.56323C10.3208 3.56323 5.57185 8.28682 5.57185 14.1137Z" fill="white"/>
</g>
</g>
<defs>
<filter id="filter0_d_163_1450" x="0.572266" y="0.563232" width="31.2139" height="31.1008" filterUnits="userSpaceOnUse" color-interpolation-filters="sRGB">
<feFlood flood-opacity="0" result="BackgroundImageFix"/>
<feColorMatrix in="SourceAlpha" type="matrix" values="0 0 0 0 0 0 0 0 0 0 0 0 0 0 0 0 0 0 127 0" result="hardAlpha"/>
<feOffset dy="2"/>
<feGaussianBlur stdDeviation="2.5"/>
<feColorMatrix type="matrix" values="0 0 0 0 0 0 0 0 0 0 0 0 0 0 0 0 0 0 0.1 0"/>
<feBlend mode="normal" in2="BackgroundImageFix" result="effect1_dropShadow_163_1450"/>
<feBlend mode="normal" in="SourceGraphic" in2="effect1_dropShadow_163_1450" result="shape"/>
</filter>
</defs>
</svg>
