<svg width="20" height="20" viewBox="0 0 20 20" fill="none" xmlns="http://www.w3.org/2000/svg">
<g id="bag 1">
<g id="Group">
<g id="Group_2">
<path id="Vector" d="M17.3125 17.275L16.2463 5.56875C16.2175 5.24625 15.9475 5 15.6238 5H13.7488V3.75C13.7488 2.745 13.3588 1.8025 12.6525 1.09625C11.9575 0.4 10.99 0 9.99877 0C7.93127 0 6.24877 1.6825 6.24877 3.75V5H4.37377C4.05002 5 3.78002 5.24625 3.75127 5.56875L2.68752 17.2738C2.62377 17.9725 2.85877 18.6688 3.33127 19.1863C3.80377 19.7038 4.47627 20 5.17752 20H14.8213C15.5213 20 16.1938 19.7038 16.6663 19.1875C17.14 18.67 17.3738 17.9725 17.3125 17.275ZM12.4988 5H7.49877V3.75C7.49877 2.37125 8.62002 1.25 9.99877 1.25C10.6613 1.25 11.3063 1.515 11.7688 1.97875C12.24 2.45 12.4988 3.07875 12.4988 3.75V5Z" fill="#FFBB38"/>
</g>
</g>
</g>
</svg>
